<svg xmlns="http://www.w3.org/2000/svg" xmlns:xlink="http://www.w3.org/1999/xlink" width="1000" zoomAndPan="magnify" viewBox="0 0 750 173.249993" height="231" preserveAspectRatio="xMidYMid meet" version="1.0"><defs><g/></defs><g fill="#3533cd" fill-opacity="1"><g transform="translate(-4.522359, 162.818753)"><g><path d="M 158.265625 -152.484375 L 158.265625 -90.6875 L 82.921875 -152.484375 Z M 61.984375 -151.6875 L 63.390625 -151.6875 L 145.515625 -84.515625 C 148.035156 -82.253906 150.359375 -80.023438 152.484375 -77.828125 C 154.609375 -75.640625 157.203125 -72.488281 160.265625 -68.375 C 164.773438 -62.125 167.03125 -54.679688 167.03125 -46.046875 C 167.03125 -38.472656 165.171875 -31.160156 161.453125 -24.109375 C 157.734375 -17.066406 151.921875 -11.285156 144.015625 -6.765625 C 136.109375 -2.253906 126.304688 0 114.609375 0 L 40.859375 -55.8125 C 30.492188 -63.65625 22.882812 -71.660156 18.03125 -79.828125 C 13.1875 -88.003906 10.765625 -96.742188 10.765625 -106.046875 C 10.765625 -115.210938 13.019531 -123.25 17.53125 -130.15625 C 22.050781 -137.070312 28.195312 -142.390625 35.96875 -146.109375 C 43.75 -149.828125 52.421875 -151.6875 61.984375 -151.6875 Z M 11.5625 -63.78125 L 92.890625 0 L 11.5625 0 Z M 11.5625 -63.78125 "/></g></g></g><g fill="#3533cd" fill-opacity="1"><g transform="translate(153.936585, 162.818753)"><g><path d="M 72.953125 -152.484375 L 72.953125 0 L 12.15625 0 L 12.15625 -152.484375 Z M 72.953125 -152.484375 "/></g></g></g><g fill="#3533cd" fill-opacity="1"><g transform="translate(229.278824, 162.818753)"><g><path d="M 68.171875 -113.421875 L 68.171875 -5.984375 C 72.023438 -5.578125 75.414062 -5.375 78.34375 -5.375 C 92.15625 -5.375 103.410156 -8.394531 112.109375 -14.4375 C 120.816406 -20.488281 127.5 -29.429688 132.15625 -41.265625 L 132.359375 -41.859375 L 138.328125 -39.265625 C 134.078125 -25.847656 126.570312 -15.78125 115.8125 -9.0625 C 105.050781 -2.351562 91.5625 1 75.34375 1 C 55.675781 1 40.328125 -3.1875 29.296875 -11.5625 C 21.191406 -17.800781 15.507812 -25.039062 12.25 -33.28125 C 9 -41.519531 7.375 -49.226562 7.375 -56.40625 C 7.375 -66.101562 9.765625 -75.304688 14.546875 -84.015625 C 19.335938 -92.722656 26.316406 -99.800781 35.484375 -105.25 C 44.648438 -110.695312 55.546875 -113.421875 68.171875 -113.421875 Z M 141.125 -57.203125 L 81.125 -57.203125 L 81.125 -113.421875 C 92.019531 -113.421875 102.050781 -110.992188 111.21875 -106.140625 C 120.394531 -101.285156 127.671875 -94.570312 133.046875 -86 C 138.429688 -77.4375 141.125 -67.835938 141.125 -57.203125 Z M 141.125 -57.203125 "/></g></g></g><g fill="#3533cd" fill-opacity="1"><g transform="translate(364.815898, 162.818753)"><g><path d="M 72.359375 0 L 64.78125 0 C 57.875 0 51.03125 -0.828125 44.25 -2.484375 C 37.46875 -4.148438 31.953125 -6.3125 27.703125 -8.96875 C 22.785156 -12.019531 18.863281 -16.101562 15.9375 -21.21875 C 13.019531 -26.34375 11.5625 -31.894531 11.5625 -37.875 L 11.5625 -112.625 L 72.359375 -112.625 Z M 146.3125 -112.625 L 146.3125 0 L 85.515625 0 L 85.515625 -112.625 Z M 146.3125 -112.625 "/></g></g></g><g fill="#3533cd" fill-opacity="1"><g transform="translate(512.91014, 162.818753)"><g><path d="M 74.75 -112.625 L 94.28125 -112.625 L 94.28125 -104.453125 L 75.34375 -104.453125 L 75.34375 1 L 69.765625 1 C 64.316406 1 58.769531 0.398438 53.125 -0.796875 C 47.476562 -1.992188 42.328125 -3.585938 37.671875 -5.578125 C 30.765625 -8.503906 25.179688 -12.820312 20.921875 -18.53125 C 16.671875 -24.25 14.546875 -30.164062 14.546875 -36.28125 L 14.546875 -112.625 L 74.75 -133.953125 Z M 74.75 -112.625 "/></g></g></g><g fill="#3533cd" fill-opacity="1"><g transform="translate(596.623796, 162.818753)"><g><path d="M 75.34375 -152.484375 L 75.34375 0 L 14.546875 0 L 14.546875 -152.484375 Z M 102.859375 -113.421875 C 118.671875 -112.890625 130.328125 -108.9375 137.828125 -101.5625 C 145.335938 -94.1875 149.09375 -84.648438 149.09375 -72.953125 L 149.09375 0 L 88.296875 0 L 88.296875 -112.625 C 94.273438 -113.15625 99.128906 -113.421875 102.859375 -113.421875 Z M 102.859375 -113.421875 "/></g></g></g><g fill="#ffffff" fill-opacity="1"><g transform="translate(10.268122, 50.867379)"><g><path d="M 53.203125 -6.1875 L 44.078125 5.78125 L 38.59375 -17.328125 Z M 34.421875 -20.25 L 34.703125 -20.046875 L 40.703125 5.109375 C 40.859375 5.921875 40.976562 6.691406 41.0625 7.421875 C 41.144531 8.160156 41.179688 9.160156 41.171875 10.421875 C 41.109375 12.285156 40.441406 14.054688 39.171875 15.734375 C 38.054688 17.203125 36.617188 18.34375 34.859375 19.15625 C 33.097656 19.976562 31.117188 20.242188 28.921875 19.953125 C 26.722656 19.660156 24.488281 18.648438 22.21875 16.921875 L 16.171875 -4.796875 C 15.316406 -7.835938 15.019531 -10.503906 15.28125 -12.796875 C 15.550781 -15.097656 16.375 -17.15625 17.75 -18.96875 C 19.113281 -20.75 20.738281 -21.972656 22.625 -22.640625 C 24.507812 -23.316406 26.484375 -23.441406 28.546875 -23.015625 C 30.609375 -22.585938 32.566406 -21.664062 34.421875 -20.25 Z M 11.65625 -10.671875 L 18.015625 13.71875 L 2.234375 1.703125 Z M 11.65625 -10.671875 "/></g></g></g><g fill="#ffffff" fill-opacity="1"><g transform="translate(40.988407, 74.267694)"><g><path d="M 9.40625 -9.953125 C 10.769531 -11.753906 12.507812 -13.1875 14.625 -14.25 C 16.75 -15.320312 19.164062 -15.710938 21.875 -15.421875 C 24.59375 -15.128906 27.414062 -13.863281 30.34375 -11.625 L 13.4375 10.5625 C 10.582031 8.382812 8.632812 6.039062 7.59375 3.53125 C 6.550781 1.019531 6.242188 -1.394531 6.671875 -3.71875 C 7.097656 -6.039062 8.007812 -8.117188 9.40625 -9.953125 Z M 36.890625 10.984375 C 35.492188 12.816406 33.734375 14.242188 31.609375 15.265625 C 29.484375 16.296875 27.070312 16.644531 24.375 16.3125 C 21.675781 15.976562 18.898438 14.722656 16.046875 12.546875 L 32.953125 -9.640625 C 35.878906 -7.410156 37.84375 -5.023438 38.84375 -2.484375 C 39.851562 0.046875 40.117188 2.472656 39.640625 4.796875 C 39.171875 7.117188 38.253906 9.179688 36.890625 10.984375 Z M 36.890625 10.984375 "/></g></g></g><g fill="#ffffff" fill-opacity="1"><g transform="translate(68.887815, 95.519284)"><g><path d="M 30.625 -11.1875 L 13.984375 10.65625 L 2.203125 1.671875 L 18.84375 -20.171875 Z M 39.59375 6.96875 L 28.40625 21.640625 L 16.625 12.65625 L 33.265625 -9.1875 L 36.546875 -6.6875 C 38.191406 -5.425781 39.429688 -4.007812 40.265625 -2.4375 C 41.097656 -0.863281 41.460938 0.738281 41.359375 2.375 C 41.253906 4.007812 40.664062 5.539062 39.59375 6.96875 Z M 39.59375 6.96875 "/></g></g></g><g fill="#ffffff" fill-opacity="1"><g transform="translate(97.59871, 117.389003)"><g><path d="M 30.546875 -23.75 C 32.453125 -22.289062 33.734375 -20.820312 34.390625 -19.34375 C 35.054688 -17.863281 35.03125 -16.644531 34.3125 -15.6875 C 33.625 -14.789062 32.5 -14.46875 30.9375 -14.71875 C 29.382812 -14.96875 27.71875 -15.773438 25.9375 -17.140625 C 24.207031 -18.453125 23.03125 -19.800781 22.40625 -21.1875 C 21.78125 -22.582031 21.835938 -23.769531 22.578125 -24.75 C 23.304688 -25.707031 24.40625 -26.09375 25.875 -25.90625 C 27.34375 -25.71875 28.898438 -25 30.546875 -23.75 Z M 30.78125 -11.0625 L 14.140625 10.78125 L 2.359375 1.796875 L 19 -20.046875 Z M 30.78125 -11.0625 "/></g></g></g><g fill="#ffffff" fill-opacity="1"><g transform="translate(112.205233, 128.515112)"><g><path d="M 30 -11.890625 L 14.25 8.78125 C 14.59375 9.125 15.046875 9.515625 15.609375 9.953125 C 17.441406 11.347656 19.441406 12.132812 21.609375 12.3125 C 23.773438 12.488281 25.953125 12.132812 28.140625 11.25 L 29.203125 12.546875 C 26.648438 13.722656 24.0625 14.144531 21.4375 13.8125 C 18.8125 13.488281 16.367188 12.46875 14.109375 10.75 C 11.160156 8.507812 9.160156 6.113281 8.109375 3.5625 C 7.066406 1.019531 6.757812 -1.410156 7.1875 -3.734375 C 7.613281 -6.066406 8.503906 -8.117188 9.859375 -9.890625 C 11.234375 -11.691406 13.015625 -13.09375 15.203125 -14.09375 C 17.390625 -15.09375 19.78125 -15.445312 22.375 -15.15625 C 24.96875 -14.875 27.507812 -13.785156 30 -11.890625 Z M 36.8125 -6.703125 C 38.019531 -5.785156 38.71875 -4.570312 38.90625 -3.0625 C 39.101562 -1.550781 38.75 -0.203125 37.84375 0.984375 C 36.925781 2.191406 35.71875 2.894531 34.21875 3.09375 C 32.71875 3.300781 31.363281 2.945312 30.15625 2.03125 C 28.9375 1.101562 28.226562 -0.109375 28.03125 -1.609375 C 27.832031 -3.109375 28.191406 -4.460938 29.109375 -5.671875 C 30.035156 -6.878906 31.253906 -7.578125 32.765625 -7.765625 C 34.273438 -7.960938 35.625 -7.609375 36.8125 -6.703125 Z M 36.8125 -6.703125 "/></g></g></g></svg>