<svg xmlns="http://www.w3.org/2000/svg" xmlns:xlink="http://www.w3.org/1999/xlink" width="200" zoomAndPan="magnify" viewBox="0 0 150 36.000001" height="48" preserveAspectRatio="xMidYMid meet" version="1.0"><defs><g/></defs><g fill="#3533cd" fill-opacity="1"><g transform="translate(2.365942, 31.782403)"><g><path d="M 30.28125 -29.171875 L 30.28125 -17.359375 L 15.859375 -29.171875 Z M 11.859375 -29.03125 L 12.125 -29.03125 L 27.84375 -16.171875 C 28.320312 -15.734375 28.765625 -15.304688 29.171875 -14.890625 C 29.578125 -14.472656 30.078125 -13.867188 30.671875 -13.078125 C 31.535156 -11.890625 31.96875 -10.46875 31.96875 -8.8125 C 31.96875 -7.363281 31.609375 -5.960938 30.890625 -4.609375 C 30.179688 -3.265625 29.066406 -2.160156 27.546875 -1.296875 C 26.035156 -0.429688 24.164062 0 21.9375 0 L 7.8125 -10.671875 C 5.832031 -12.171875 4.378906 -13.703125 3.453125 -15.265625 C 2.523438 -16.835938 2.0625 -18.515625 2.0625 -20.296875 C 2.0625 -22.046875 2.492188 -23.582031 3.359375 -24.90625 C 4.222656 -26.226562 5.394531 -27.242188 6.875 -27.953125 C 8.363281 -28.671875 10.023438 -29.03125 11.859375 -29.03125 Z M 2.21875 -12.203125 L 17.78125 0 L 2.21875 0 Z M 2.21875 -12.203125 "/></g></g></g><g fill="#3533cd" fill-opacity="1"><g transform="translate(32.692262, 31.782403)"><g><path d="M 13.953125 -29.171875 L 13.953125 0 L 2.328125 0 L 2.328125 -29.171875 Z M 13.953125 -29.171875 "/></g></g></g><g fill="#3533cd" fill-opacity="1"><g transform="translate(47.111471, 31.782403)"><g><path d="M 13.046875 -21.703125 L 13.046875 -1.140625 C 13.785156 -1.066406 14.429688 -1.03125 14.984375 -1.03125 C 17.628906 -1.03125 19.785156 -1.609375 21.453125 -2.765625 C 23.117188 -3.921875 24.394531 -5.628906 25.28125 -7.890625 L 25.328125 -8.015625 L 26.46875 -7.515625 C 25.65625 -4.941406 24.21875 -3.015625 22.15625 -1.734375 C 20.09375 -0.453125 17.515625 0.1875 14.421875 0.1875 C 10.648438 0.1875 7.710938 -0.613281 5.609375 -2.21875 C 4.054688 -3.40625 2.96875 -4.785156 2.34375 -6.359375 C 1.71875 -7.941406 1.40625 -9.421875 1.40625 -10.796875 C 1.40625 -12.648438 1.863281 -14.410156 2.78125 -16.078125 C 3.695312 -17.742188 5.03125 -19.097656 6.78125 -20.140625 C 8.539062 -21.179688 10.628906 -21.703125 13.046875 -21.703125 Z M 27 -10.953125 L 15.515625 -10.953125 L 15.515625 -21.703125 C 17.609375 -21.703125 19.53125 -21.238281 21.28125 -20.3125 C 23.039062 -19.382812 24.429688 -18.097656 25.453125 -16.453125 C 26.484375 -14.816406 27 -12.984375 27 -10.953125 Z M 27 -10.953125 "/></g></g></g><g fill="#3533cd" fill-opacity="1"><g transform="translate(73.050939, 31.782403)"><g><path d="M 13.84375 0 L 12.390625 0 C 11.066406 0 9.753906 -0.15625 8.453125 -0.46875 C 7.160156 -0.789062 6.109375 -1.207031 5.296875 -1.71875 C 4.359375 -2.300781 3.609375 -3.082031 3.046875 -4.0625 C 2.492188 -5.039062 2.21875 -6.101562 2.21875 -7.25 L 2.21875 -21.546875 L 13.84375 -21.546875 Z M 28 -21.546875 L 28 0 L 16.359375 0 L 16.359375 -21.546875 Z M 28 -21.546875 "/></g></g></g><g fill="#3533cd" fill-opacity="1"><g transform="translate(101.393632, 31.782403)"><g><path d="M 14.296875 -21.546875 L 18.046875 -21.546875 L 18.046875 -19.984375 L 14.421875 -19.984375 L 14.421875 0.1875 L 13.34375 0.1875 C 12.300781 0.1875 11.238281 0.0703125 10.15625 -0.15625 C 9.082031 -0.382812 8.097656 -0.6875 7.203125 -1.0625 C 5.878906 -1.625 4.8125 -2.453125 4 -3.546875 C 3.1875 -4.640625 2.78125 -5.769531 2.78125 -6.9375 L 2.78125 -21.546875 L 14.296875 -25.625 Z M 14.296875 -21.546875 "/></g></g></g><g fill="#3533cd" fill-opacity="1"><g transform="translate(117.414988, 31.782403)"><g><path d="M 14.421875 -29.171875 L 14.421875 0 L 2.78125 0 L 2.78125 -29.171875 Z M 19.6875 -21.703125 C 22.707031 -21.597656 24.9375 -20.835938 26.375 -19.421875 C 27.8125 -18.015625 28.53125 -16.191406 28.53125 -13.953125 L 28.53125 0 L 16.890625 0 L 16.890625 -21.546875 C 18.035156 -21.648438 18.96875 -21.703125 19.6875 -21.703125 Z M 19.6875 -21.703125 "/></g></g></g><g fill="#ffffff" fill-opacity="1"><g transform="translate(5.196586, 10.356833)"><g><path d="M 10.171875 -1.1875 L 8.421875 1.09375 L 7.390625 -3.3125 Z M 6.578125 -3.875 L 6.625 -3.828125 L 7.78125 0.984375 C 7.820312 1.128906 7.847656 1.273438 7.859375 1.421875 C 7.878906 1.566406 7.882812 1.757812 7.875 2 C 7.875 2.351562 7.75 2.691406 7.5 3.015625 C 7.289062 3.285156 7.015625 3.5 6.671875 3.65625 C 6.328125 3.820312 5.941406 3.875 5.515625 3.8125 C 5.097656 3.757812 4.675781 3.566406 4.25 3.234375 L 3.09375 -0.921875 C 2.925781 -1.503906 2.867188 -2.015625 2.921875 -2.453125 C 2.972656 -2.898438 3.128906 -3.296875 3.390625 -3.640625 C 3.648438 -3.984375 3.960938 -4.210938 4.328125 -4.328125 C 4.691406 -4.453125 5.066406 -4.472656 5.453125 -4.390625 C 5.847656 -4.316406 6.222656 -4.144531 6.578125 -3.875 Z M 2.234375 -2.03125 L 3.4375 2.625 L 0.4375 0.328125 Z M 2.234375 -2.03125 "/></g></g></g><g fill="#ffffff" fill-opacity="1"><g transform="translate(11.07592, 14.835252)"><g><path d="M 1.796875 -1.90625 C 2.054688 -2.238281 2.390625 -2.507812 2.796875 -2.71875 C 3.210938 -2.925781 3.675781 -3.003906 4.1875 -2.953125 C 4.707031 -2.898438 5.242188 -2.660156 5.796875 -2.234375 L 2.5625 2.015625 C 2.019531 1.597656 1.644531 1.148438 1.4375 0.671875 C 1.238281 0.203125 1.179688 -0.253906 1.265625 -0.703125 C 1.347656 -1.148438 1.523438 -1.550781 1.796875 -1.90625 Z M 7.0625 2.09375 C 6.789062 2.445312 6.453125 2.722656 6.046875 2.921875 C 5.640625 3.128906 5.175781 3.195312 4.65625 3.125 C 4.144531 3.050781 3.613281 2.804688 3.0625 2.390625 L 6.296875 -1.859375 C 6.859375 -1.429688 7.238281 -0.972656 7.4375 -0.484375 C 7.632812 0.00390625 7.6875 0.472656 7.59375 0.921875 C 7.5 1.367188 7.320312 1.757812 7.0625 2.09375 Z M 7.0625 2.09375 "/></g></g></g><g fill="#ffffff" fill-opacity="1"><g transform="translate(16.415388, 18.902441)"><g><path d="M 5.859375 -2.140625 L 2.671875 2.03125 L 0.421875 0.328125 L 3.609375 -3.84375 Z M 7.578125 1.328125 L 5.4375 4.140625 L 3.1875 2.421875 L 6.375 -1.75 L 6.984375 -1.28125 C 7.304688 -1.03125 7.546875 -0.753906 7.703125 -0.453125 C 7.859375 -0.160156 7.925781 0.140625 7.90625 0.453125 C 7.894531 0.765625 7.785156 1.054688 7.578125 1.328125 Z M 7.578125 1.328125 "/></g></g></g><g fill="#ffffff" fill-opacity="1"><g transform="translate(21.91016, 23.087929)"><g><path d="M 5.84375 -4.546875 C 6.207031 -4.265625 6.453125 -3.984375 6.578125 -3.703125 C 6.710938 -3.421875 6.707031 -3.191406 6.5625 -3.015625 C 6.425781 -2.835938 6.210938 -2.769531 5.921875 -2.8125 C 5.628906 -2.863281 5.3125 -3.019531 4.96875 -3.28125 C 4.632812 -3.53125 4.40625 -3.785156 4.28125 -4.046875 C 4.164062 -4.316406 4.179688 -4.546875 4.328125 -4.734375 C 4.460938 -4.921875 4.671875 -4.992188 4.953125 -4.953125 C 5.234375 -4.921875 5.53125 -4.785156 5.84375 -4.546875 Z M 5.890625 -2.109375 L 2.703125 2.0625 L 0.453125 0.34375 L 3.640625 -3.828125 Z M 5.890625 -2.109375 "/></g></g></g><g fill="#ffffff" fill-opacity="1"><g transform="translate(24.705597, 25.217275)"><g><path d="M 5.734375 -2.28125 L 2.71875 1.6875 C 2.789062 1.75 2.882812 1.820312 3 1.90625 C 3.34375 2.164062 3.722656 2.316406 4.140625 2.359375 C 4.554688 2.398438 4.972656 2.332031 5.390625 2.15625 L 5.609375 2.390625 C 5.109375 2.617188 4.609375 2.703125 4.109375 2.640625 C 3.609375 2.585938 3.140625 2.390625 2.703125 2.046875 C 2.140625 1.617188 1.753906 1.160156 1.546875 0.671875 C 1.347656 0.191406 1.289062 -0.269531 1.375 -0.71875 C 1.457031 -1.164062 1.628906 -1.554688 1.890625 -1.890625 C 2.148438 -2.234375 2.488281 -2.5 2.90625 -2.6875 C 3.320312 -2.882812 3.773438 -2.957031 4.265625 -2.90625 C 4.765625 -2.863281 5.253906 -2.65625 5.734375 -2.28125 Z M 7.046875 -1.296875 C 7.273438 -1.117188 7.40625 -0.882812 7.4375 -0.59375 C 7.476562 -0.300781 7.410156 -0.0390625 7.234375 0.1875 C 7.054688 0.425781 6.828125 0.5625 6.546875 0.59375 C 6.265625 0.632812 6.007812 0.566406 5.78125 0.390625 C 5.550781 0.210938 5.414062 -0.015625 5.375 -0.296875 C 5.332031 -0.578125 5.398438 -0.835938 5.578125 -1.078125 C 5.753906 -1.304688 5.984375 -1.441406 6.265625 -1.484375 C 6.554688 -1.535156 6.816406 -1.472656 7.046875 -1.296875 Z M 7.046875 -1.296875 "/></g></g></g></svg>