<?xml version="1.0" encoding="utf-8"?>
<!-- Generator: Adobe Illustrator 25.1.0, SVG Export Plug-In . SVG Version: 6.00 Build 0)  -->
<svg version="1.1" id="Layer_1" xmlns="http://www.w3.org/2000/svg" xmlns:xlink="http://www.w3.org/1999/xlink" x="0px" y="0px"
	 viewBox="0 0 80 80" style="enable-background:new 0 0 80 80;" xml:space="preserve">
<style type="text/css">
	.st0{fill:#187BFB;}
</style>
<g>
	<path class="st0" d="M78.1,40.9c-0.1,0.3-0.2,0.5-0.2,0.8c-0.7,2.3-2.7,4-5.1,4.3c-2.3,0.3-4.7-1-5.8-3.1c-0.2-0.5-0.5-0.6-1-0.6
		c-7.6,0-15.1,0-22.7,0c-0.3,0-0.6,0-0.9,0c0-1.5,0-2.9,0-4.5c0.3,0,0.6,0,0.9,0c7.6,0,15.2,0,22.8,0c0.4,0,0.7,0,0.9-0.5
		c1.2-2.3,3.6-3.5,6-3.2c2.6,0.3,4.5,2.1,5.1,4.7c0,0.1,0.1,0.2,0.1,0.3C78.1,39.7,78.1,40.3,78.1,40.9z"/>
	<path class="st0" d="M20.3,22.8c1.1-1,2.2-2,3.3-2.9c-0.4-0.5-0.7-0.8-1-1.2c-2.1-2.7-2.2-6.5-0.3-9.5c1.9-2.9,5.4-4.4,8.8-3.7
		c3.4,0.7,6,3.5,6.6,6.9c0.1,0.5,0.1,1,0.1,1.6c0,17.4,0,34.8,0,52.1c0,4.9-3.7,8.7-8.5,8.6c-3.5-0.1-6.1-1.8-7.6-5
		c-1.4-3.2-0.9-6.2,1.3-8.9c0.1-0.2,0.3-0.3,0.4-0.4c0,0,0,0,0.1-0.2c-1-0.9-2.1-1.9-3.3-2.9c-2.1,2-3.3,4.7-3.7,7.8
		c-1.8-0.5-3.3-1.5-4.4-2.9c-1.2-1.5-1.8-3.2-1.8-5c0-2.1,0-4.3,0-6.5c-0.6,0-1.2,0-1.7,0c-4.2,0-6.7-2.6-6.7-6.8c0-2.8,0-5.6,0-8.4
		c0-2.5,1.7-4.9,4-5.6c0,4.2,1.6,7.5,5.1,9.8c1.7,1.1,3.7,1.7,5.8,1.7c0-1.5,0-2.9,0-4.4c-0.4-0.1-0.8-0.1-1.2-0.2
		c-2.9-0.6-5.1-3.1-5.1-6.1c0-2.7,0-5.4,0-8c0.1-3.4,2.5-6.5,5.6-7.6c0.2-0.1,0.3-0.1,0.5-0.1C16.9,18.1,18.2,20.8,20.3,22.8z"/>
	<path class="st0" d="M42.2,32.7c0-1.5,0-2.9,0-4.4c0.3,0,0.6,0,0.9,0c4.6,0,9.3,0,13.9,0c0.4,0,0.8-0.2,1.2-0.5
		c0.3-0.2,0.5-0.5,0.8-0.8c1.1-0.9,1.5-1.7,1.2-3.3c-0.6-3.2,2-6.2,5.4-6.6c3.2-0.3,6.2,2.3,6.3,5.6c0.2,3.3-2.4,6.2-5.7,6.3
		c-0.7,0-1.4-0.1-2.1-0.3c-0.4-0.1-0.6,0-0.9,0.3c-1.1,1.1-2.2,2.3-3.4,3.4c-0.2,0.2-0.5,0.4-0.8,0.4c-5.5,0-11,0-16.5,0
		C42.5,32.7,42.4,32.7,42.2,32.7z"/>
	<path class="st0" d="M42.2,51.7c0-1.5,0-2.9,0-4.5c0.3,0,0.5,0,0.8,0c5.3,0,10.6,0,15.8,0c0.5,0,0.8,0.1,1.2,0.5
		c1.1,1.1,2.2,2.2,3.2,3.3c0.3,0.3,0.6,0.4,1,0.2c3.2-1,6.6,0.8,7.5,4c0.9,3.2-1,6.5-4.3,7.4c-2.2,0.6-4.2,0-5.7-1.6
		c-1.6-1.6-2.1-3.6-1.4-5.8c0.1-0.5,0.1-0.8-0.3-1.1c-0.8-0.7-1.5-1.8-2.4-2.2c-1-0.4-2.2-0.1-3.3-0.1c-3.7,0-7.5,0-11.2,0
		C42.8,51.7,42.6,51.7,42.2,51.7z"/>
	<path class="st0" d="M50.5,62.7c-2.8-0.7-5.5-1.4-8.3-2.1c0-1.5,0-3,0-4.6c4.3,1.1,8.5,2.1,12.7,3.1c0,2,0,4,0,6
		c0,0.5,0.1,0.7,0.6,1c2.5,1.3,3.7,4.1,3,6.7c-0.7,2.6-3.1,4.5-5.8,4.4c-2.7,0-5.1-1.9-5.7-4.5c-0.7-2.7,0.5-5.4,3-6.7
		c0.4-0.2,0.6-0.5,0.5-0.9C50.5,64.4,50.5,63.6,50.5,62.7z"/>
	<path class="st0" d="M42.3,23.9c0-1.5,0-3,0-4.5c2.7-0.7,5.5-1.4,8.3-2.1c0-1,0-2,0-2.9c0-0.2-0.3-0.4-0.6-0.6
		c-2.1-1.2-3.4-3.5-3.1-5.9c0.3-2.5,1.7-4.2,4.1-5c2.9-1,6.1,0.5,7.3,3.3c1.2,2.8,0.1,6.1-2.6,7.6c-0.5,0.3-0.7,0.6-0.7,1.1
		c0,1.8,0,3.6,0,5.4c0,0.4-0.1,0.6-0.5,0.7c-4,1-8,2-12,3C42.4,23.9,42.4,23.9,42.3,23.9z"/>
</g>
</svg>
