<?xml version="1.0" encoding="utf-8"?>
<!-- Generator: Adobe Illustrator 25.1.0, SVG Export Plug-In . SVG Version: 6.00 Build 0)  -->
<svg version="1.1" id="Layer_1" xmlns="http://www.w3.org/2000/svg" xmlns:xlink="http://www.w3.org/1999/xlink" x="0px" y="0px"
	 viewBox="0 0 80 80" style="enable-background:new 0 0 80 80;" xml:space="preserve">
<style type="text/css">
	.st0{fill:#187BFB;}
</style>
<g>
	<path class="st0" d="M9,71C9,50.3,9,29.7,9,9c20.7,0,41.3,0,62,0c0,20.6,0,41.3,0,62C50.3,71,29.7,71,9,71z M62.4,40.1
		c-0.2-0.3-0.3-0.5-0.5-0.6c-3.6-4.3-7.8-8-12.9-10.4c-5.3-2.5-10.6-2.9-16.1-0.8c-3.6,1.4-6.8,3.5-9.7,6c-2,1.7-3.9,3.6-5.5,5.7
		c0.2,0.3,0.3,0.5,0.5,0.7c3.2,3.9,7,7.1,11.4,9.5c4.5,2.4,9.3,3.6,14.4,2.4C51.7,50.9,57.3,46,62.4,40.1z"/>
	<path class="st0" d="M0,0c3.7,0,7.4,0,11.1,0c0,0.7,0,1.4,0,2.2c-2.9,0-5.9,0-8.9,0c0,3,0,6,0,9c-0.8,0-1.4,0-2.2,0
		C0,7.4,0,3.8,0,0z"/>
	<path class="st0" d="M77.8,2.2c-3.1,0-6,0-8.9,0c0-0.8,0-1.5,0-2.2c3.7,0,7.4,0,11.1,0c0,3.7,0,7.4,0,11.1c-0.7,0-1.4,0-2.1,0
		C77.8,8.2,77.8,5.3,77.8,2.2z"/>
	<path class="st0" d="M2.1,77.8c3.1,0,6,0,9,0c0,0.7,0,1.4,0,2.2C7.4,80,3.7,80,0,80c0-3.7,0-7.4,0-11.1c0.7,0,1.4,0,2.1,0
		C2.1,71.8,2.1,74.8,2.1,77.8z"/>
	<path class="st0" d="M80,80c-3.7,0-7.4,0-11.1,0c0-0.7,0-1.4,0-2.2c2.9,0,5.9,0,8.9,0c0-3,0-6,0-9c0.8,0,1.4,0,2.2,0
		C80,72.6,80,76.3,80,80z"/>
	<path class="st0" d="M20.5,40c4.6-4.9,9.6-9,16.3-10.5c3.8-0.8,7.5-0.2,11,1.5c4.6,2.1,8.3,5.3,11.8,9.1c-1.6,1.5-3.1,3-4.7,4.4
		c-2.6,2.3-5.6,4.1-8.8,5.3c-4.5,1.7-8.9,1.4-13.3-0.5C28,47.2,24,43.9,20.5,40z M45.6,40c0-3-2.5-5.6-5.6-5.6c-3,0-5.6,2.5-5.7,5.5
		c0,3.1,2.5,5.7,5.6,5.7C43,45.6,45.6,43.1,45.6,40z"/>
</g>
</svg>
