<svg width="70" height="57" viewBox="0 0 70 57" fill="none" xmlns="http://www.w3.org/2000/svg">
<path d="M42.7865 10.3286C42.7865 12.5563 44.7463 14.3622 47.1639 14.3622H57.2946L42.7865 1.49998V10.3286Z" fill="black"/>
<path fill-rule="evenodd" clip-rule="evenodd" d="M17.5713 3.01678C15.7251 3.01678 14.2285 4.3712 14.2285 6.04196V51.4196C14.2285 53.0903 15.7251 54.4448 17.5713 54.4448H53.2232C55.0694 54.4448 56.566 53.0903 56.566 51.4196V15.879H47.3654C44.2885 15.879 41.7941 13.6216 41.7941 10.837V3.01678H17.5713ZM44.0226 4.37794L54.9151 13.8622H47.3654C45.5192 13.8622 44.0226 12.5078 44.0226 10.837V4.37794ZM12 6.04196C12 3.25736 14.4943 1 17.5713 1H43.3574L58.7945 14.4415V51.4196C58.7945 54.2042 56.3002 56.4615 53.2232 56.4615H17.5713C14.4943 56.4615 12 54.2042 12 51.4196V6.04196Z" fill="black"/>
<path fill-rule="evenodd" clip-rule="evenodd" d="M16.9151 29C17.318 29 17.6447 29.301 17.6447 29.6723V35.8816C17.6447 36.2529 17.318 36.5539 16.9151 36.5539C16.5122 36.5539 16.1855 36.2529 16.1855 35.8816V29.6723C16.1855 29.301 16.5122 29 16.9151 29Z" fill="black"/>
<path fill-rule="evenodd" clip-rule="evenodd" d="M19.6097 38.9326C19.2068 38.9326 18.8801 38.6316 18.8801 38.2603V26.2852C18.8801 25.9139 19.2068 25.6129 19.6097 25.6129C20.0126 25.6129 20.3393 25.9139 20.3393 26.2852V38.2603C20.3393 38.6316 20.0126 38.9326 19.6097 38.9326Z" fill="black"/>
<path fill-rule="evenodd" clip-rule="evenodd" d="M22.524 37.215C22.1211 37.215 21.7944 36.914 21.7944 36.5428V27.6723C21.7944 27.301 22.1211 27 22.524 27C22.9269 27 23.2536 27.301 23.2536 27.6723V36.5428C23.2536 36.914 22.9269 37.215 22.524 37.215Z" fill="black"/>
<path fill-rule="evenodd" clip-rule="evenodd" d="M24.9151 25C25.318 25 25.6447 25.301 25.6447 25.6723V38.091C25.6447 38.4622 25.318 38.7632 24.9151 38.7632C24.5122 38.7632 24.1855 38.4622 24.1855 38.091V25.6723C24.1855 25.301 24.5122 25 24.9151 25Z" fill="black"/>
<path fill-rule="evenodd" clip-rule="evenodd" d="M27.9151 22C28.318 22 28.6447 22.301 28.6447 22.6723V41.3003C28.6447 41.6716 28.318 41.9726 27.9151 41.9726C27.5122 41.9726 27.1855 41.6716 27.1855 41.3003V22.6723C27.1855 22.301 27.5122 22 27.9151 22Z" fill="black"/>
<path fill-rule="evenodd" clip-rule="evenodd" d="M30.9151 26C31.318 26 31.6447 26.301 31.6447 26.6723V38.2039C31.6447 38.5752 31.318 38.8762 30.9151 38.8762C30.5122 38.8762 30.1855 38.5752 30.1855 38.2039V26.6723C30.1855 26.301 30.5122 26 30.9151 26Z" fill="black"/>
<path fill-rule="evenodd" clip-rule="evenodd" d="M33.9151 19C34.318 19 34.6447 19.301 34.6447 19.6723V44.9532C34.6447 45.3245 34.318 45.6254 33.9151 45.6254C33.5122 45.6254 33.1855 45.3245 33.1855 44.9532V19.6723C33.1855 19.301 33.5122 19 33.9151 19Z" fill="black"/>
<path fill-rule="evenodd" clip-rule="evenodd" d="M36.9151 23C37.318 23 37.6447 23.301 37.6447 23.6723V40.5262C37.6447 40.8975 37.318 41.1985 36.9151 41.1985C36.5122 41.1985 36.1855 40.8975 36.1855 40.5262V23.6723C36.1855 23.301 36.5122 23 36.9151 23Z" fill="black"/>
<path fill-rule="evenodd" clip-rule="evenodd" d="M39.9151 25C40.318 25 40.6447 25.301 40.6447 25.6723V37.6474C40.6447 38.0187 40.318 38.3197 39.9151 38.3197C39.5122 38.3197 39.1855 38.0187 39.1855 37.6474V25.6723C39.1855 25.301 39.5122 25 39.9151 25Z" fill="black"/>
<path fill-rule="evenodd" clip-rule="evenodd" d="M42.9151 21C43.318 21 43.6447 21.301 43.6447 21.6723V42.0744C43.6447 42.4457 43.318 42.7467 42.9151 42.7467C42.5122 42.7467 42.1855 42.4457 42.1855 42.0744V21.6723C42.1855 21.301 42.5122 21 42.9151 21Z" fill="black"/>
<path fill-rule="evenodd" clip-rule="evenodd" d="M45.9151 27C46.318 27 46.6447 27.301 46.6447 27.6723V36.0992C46.6447 36.4705 46.318 36.7715 45.9151 36.7715C45.5122 36.7715 45.1855 36.4705 45.1855 36.0992V27.6723C45.1855 27.301 45.5122 27 45.9151 27Z" fill="black"/>
<path fill-rule="evenodd" clip-rule="evenodd" d="M48.9151 25C49.318 25 49.6447 25.301 49.6447 25.6723V38.091C49.6447 38.4622 49.318 38.7632 48.9151 38.7632C48.5122 38.7632 48.1855 38.4622 48.1855 38.091V25.6723C48.1855 25.301 48.5122 25 48.9151 25Z" fill="black"/>
<path fill-rule="evenodd" clip-rule="evenodd" d="M51.5241 28C51.927 28 52.2537 28.301 52.2537 28.6723V36.2122C52.2537 36.5835 51.927 36.8844 51.5241 36.8844C51.1212 36.8844 50.7945 36.5835 50.7945 36.2122V28.6723C50.7945 28.301 51.1212 28 51.5241 28Z" fill="black"/>
<path fill-rule="evenodd" clip-rule="evenodd" d="M54.5241 29C54.927 29 55.2537 29.301 55.2537 29.6723V34.551C55.2537 34.9223 54.927 35.2233 54.5241 35.2233C54.1212 35.2233 53.7945 34.9223 53.7945 34.551V29.6723C53.7945 29.301 54.1212 29 54.5241 29Z" fill="black"/>
<path d="M3 32H66.5192" stroke="black" stroke-width="5" stroke-linecap="round"/>
</svg>
