<svg width="61" height="65" viewBox="0 0 61 65" fill="none" xmlns="http://www.w3.org/2000/svg">
<path fill-rule="evenodd" clip-rule="evenodd" d="M46.0309 4.77617L56.9261 15.3786H49.3745C47.5279 15.3786 46.0309 13.8645 46.0309 11.9968V4.77617Z" fill="black"/>
<path d="M16.2291 45V6.63636C16.2291 4.76864 17.7261 3.25455 19.5727 3.25455H45V11.9968C45 15 47 16.5 49.3745 16.5H58.5775V57.3636C58.5775 59.2314 56.3466 60.5 54.5 60.5M54.5 62.5C57.5777 62.5 59.6481 60.4765 59.6481 57.3636V17.5L44 2H19.5727C16.495 2 15 3.52349 15 6.63636V45M46.0309 4.77617L56.9261 15.3786H49.3745C47.5279 15.3786 46.0309 13.8645 46.0309 11.9968V4.77617Z" stroke="black" stroke-width="2.5"/>
<path d="M1.496 64V48.6H11.44V50.866H4.312V55.178H10.076V57.4H4.312V64H1.496ZM12.1132 64V48.6H14.9292V61.8H21.7492V64H12.1132ZM21.7404 64L27.3724 48.6H30.5404L36.1724 64H33.1804L31.9484 60.436H25.9424L24.6884 64H21.7404ZM26.7124 58.236H31.1784L28.9344 51.834L26.7124 58.236ZM42.7493 64.264C41.1946 64.264 39.86 63.934 38.7453 63.274C37.6306 62.5993 36.7726 61.668 36.1713 60.48C35.57 59.2773 35.2693 57.8913 35.2693 56.322C35.2693 54.7527 35.57 53.3667 36.1713 52.164C36.7726 50.9613 37.6306 50.0227 38.7453 49.348C39.86 48.6733 41.1946 48.336 42.7493 48.336C44.5973 48.336 46.108 48.798 47.2813 49.722C48.4693 50.6313 49.21 51.9147 49.5033 53.572H46.4013C46.2106 52.736 45.8 52.0833 45.1693 51.614C44.5533 51.13 43.732 50.888 42.7053 50.888C41.2826 50.888 40.168 51.372 39.3613 52.34C38.5546 53.308 38.1513 54.6353 38.1513 56.322C38.1513 58.0087 38.5546 59.336 39.3613 60.304C40.168 61.2573 41.2826 61.734 42.7053 61.734C43.732 61.734 44.5533 61.514 45.1693 61.074C45.8 60.6193 46.2106 59.996 46.4013 59.204H49.5033C49.21 60.788 48.4693 62.0273 47.2813 62.922C46.108 63.8167 44.5973 64.264 42.7493 64.264Z" fill="black"/>
</svg>
