<svg width="69" height="56" viewBox="0 0 69 56" fill="none" xmlns="http://www.w3.org/2000/svg">
<path d="M40.801 9.83708C40.801 12.0648 42.7609 13.8706 45.1785 13.8706H55.3091L40.801 1.00842V9.83708Z" fill="black"/>
<path fill-rule="evenodd" clip-rule="evenodd" d="M15.1803 2.01678C13.3341 2.01678 11.8375 3.3712 11.8375 5.04196V50.4196C11.8375 52.0903 13.3341 53.4448 15.1803 53.4448H50.8323C52.6784 53.4448 54.175 52.0903 54.175 50.4196V14.879H44.9744C41.8975 14.879 39.4031 12.6216 39.4031 9.83705V2.01678H15.1803ZM41.6316 3.37794L52.5241 12.8622H44.9744C43.1283 12.8622 41.6316 11.5078 41.6316 9.83705V3.37794ZM9.60901 5.04196C9.60901 2.25736 12.1033 0 15.1803 0H40.9664L56.4035 13.4415V50.4196C56.4035 53.2042 53.9092 55.4615 50.8323 55.4615H15.1803C12.1034 55.4615 9.60901 53.2042 9.60901 50.4196V5.04196Z" fill="black"/>
<path fill-rule="evenodd" clip-rule="evenodd" d="M15.9651 30.2742C16.3681 30.2742 16.6947 30.5752 16.6947 30.9464V37.1558C16.6947 37.5271 16.3681 37.828 15.9651 37.828C15.5622 37.828 15.2356 37.5271 15.2356 37.1558V30.9464C15.2356 30.5752 15.5622 30.2742 15.9651 30.2742Z" fill="#187BFB"/>
<path fill-rule="evenodd" clip-rule="evenodd" d="M18.4242 40.9326C18.0212 40.9326 17.6946 40.6316 17.6946 40.2604V28.2852C17.6946 27.9139 18.0212 27.6129 18.4242 27.6129C18.8271 27.6129 19.1537 27.9139 19.1537 28.2852V40.2604C19.1537 40.6316 18.8271 40.9326 18.4242 40.9326Z" fill="#187BFB"/>
<path fill-rule="evenodd" clip-rule="evenodd" d="M20.3913 39.1584C19.9884 39.1584 19.6617 38.8575 19.6617 38.4862V29.6157C19.6617 29.2444 19.9884 28.9434 20.3913 28.9434C20.7942 28.9434 21.1209 29.2444 21.1209 29.6157V38.4862C21.1209 38.8575 20.7942 39.1584 20.3913 39.1584Z" fill="#187BFB"/>
<path fill-rule="evenodd" clip-rule="evenodd" d="M24.8175 27.1694C25.2205 27.1694 25.5471 27.4704 25.5471 27.8417V40.2604C25.5471 40.6317 25.2205 40.9327 24.8175 40.9327C24.4146 40.9327 24.088 40.6317 24.088 40.2604V27.8417C24.088 27.4704 24.4146 27.1694 24.8175 27.1694Z" fill="#187BFB"/>
<path fill-rule="evenodd" clip-rule="evenodd" d="M27.2765 24.0647C27.6795 24.0647 28.0061 24.3657 28.0061 24.737V43.365C28.0061 43.7363 27.6795 44.0373 27.2765 44.0373C26.8736 44.0373 26.547 43.7363 26.547 43.365V24.737C26.547 24.3657 26.8736 24.0647 27.2765 24.0647Z" fill="#187BFB"/>
<path fill-rule="evenodd" clip-rule="evenodd" d="M29.7356 27.6129C30.1386 27.6129 30.4652 27.9139 30.4652 28.2852V39.8168C30.4652 40.1881 30.1386 40.4891 29.7356 40.4891C29.3327 40.4891 29.0061 40.1881 29.0061 39.8168V28.2852C29.0061 27.9139 29.3327 27.6129 29.7356 27.6129Z" fill="#187BFB"/>
<path fill-rule="evenodd" clip-rule="evenodd" d="M32.6863 20.5165C33.0893 20.5165 33.4159 20.8175 33.4159 21.1887V46.4697C33.4159 46.8409 33.0893 47.1419 32.6863 47.1419C32.2834 47.1419 31.9568 46.8409 31.9568 46.4697V21.1887C31.9568 20.8175 32.2834 20.5165 32.6863 20.5165Z" fill="#187BFB"/>
<path fill-rule="evenodd" clip-rule="evenodd" d="M35.6371 24.9517C36.0401 24.9517 36.3667 25.2526 36.3667 25.6239V42.4779C36.3667 42.8492 36.0401 43.1501 35.6371 43.1501C35.2342 43.1501 34.9076 42.8492 34.9076 42.4779V25.6239C34.9076 25.2526 35.2342 24.9517 35.6371 24.9517Z" fill="#187BFB"/>
<path fill-rule="evenodd" clip-rule="evenodd" d="M38.0961 27.1694C38.499 27.1694 38.8257 27.4704 38.8257 27.8417V39.8169C38.8257 40.1881 38.499 40.4891 38.0961 40.4891C37.6932 40.4891 37.3665 40.1881 37.3665 39.8169V27.8417C37.3665 27.4704 37.6932 27.1694 38.0961 27.1694Z" fill="#187BFB"/>
<path fill-rule="evenodd" clip-rule="evenodd" d="M41.0469 23.1777C41.4498 23.1777 41.7765 23.4787 41.7765 23.85V44.2521C41.7765 44.6234 41.4498 44.9244 41.0469 44.9244C40.644 44.9244 40.3173 44.6234 40.3173 44.2521V23.85C40.3173 23.4787 40.644 23.1777 41.0469 23.1777Z" fill="#187BFB"/>
<path fill-rule="evenodd" clip-rule="evenodd" d="M43.9977 28.9435C44.4007 28.9435 44.7273 29.2445 44.7273 29.6157V38.0427C44.7273 38.414 44.4007 38.715 43.9977 38.715C43.5948 38.715 43.2682 38.414 43.2682 38.0427V29.6157C43.2682 29.2445 43.5948 28.9435 43.9977 28.9435Z" fill="#187BFB"/>
<path fill-rule="evenodd" clip-rule="evenodd" d="M46.4568 27.1694C46.8598 27.1694 47.1864 27.4704 47.1864 27.8417V40.2604C47.1864 40.6317 46.8598 40.9327 46.4568 40.9327C46.0539 40.9327 45.7273 40.6317 45.7273 40.2604V27.8417C45.7273 27.4704 46.0539 27.1694 46.4568 27.1694Z" fill="#187BFB"/>
<path fill-rule="evenodd" clip-rule="evenodd" d="M49.4075 29.8304C49.8104 29.8304 50.1371 30.1314 50.1371 30.5027V38.0426C50.1371 38.4139 49.8104 38.7149 49.4075 38.7149C49.0046 38.7149 48.6779 38.4139 48.6779 38.0426V30.5027C48.6779 30.1314 49.0046 29.8304 49.4075 29.8304Z" fill="#187BFB"/>
<path fill-rule="evenodd" clip-rule="evenodd" d="M51.6206 31.1611C52.0236 31.1611 52.3502 31.4621 52.3502 31.8334V36.7122C52.3502 37.0834 52.0236 37.3844 51.6206 37.3844C51.2177 37.3844 50.8911 37.0834 50.8911 36.7122V31.8334C50.8911 31.4621 51.2177 31.1611 51.6206 31.1611Z" fill="#187BFB"/>
<path d="M33.0062 24.5812V20.6" stroke="black" stroke-width="3" stroke-linecap="round"/>
<path d="M11.109 24.4769H54.9035V48.4615C54.9035 51.4991 52.4411 53.9615 49.4035 53.9615H16.609C13.5714 53.9615 11.109 51.4991 11.109 48.4615V24.4769Z" stroke="#187BFB" stroke-width="3"/>
<path d="M2.91785 24.3634H66.4371" stroke="#9E3FFD" stroke-width="5" stroke-linecap="round"/>
</svg>
