<?xml version="1.0" encoding="utf-8"?>
<!-- Generator: Adobe Illustrator 25.1.0, SVG Export Plug-In . SVG Version: 6.00 Build 0)  -->
<svg version="1.1" id="Layer_1" xmlns="http://www.w3.org/2000/svg" xmlns:xlink="http://www.w3.org/1999/xlink" x="0px" y="0px"
	 viewBox="0 0 80 80" style="enable-background:new 0 0 80 80;" xml:space="preserve">
<style type="text/css">
	.st0{fill:#187BFB;}
</style>
<g>
	<path class="st0" d="M58.6,20.5c0,11.3-9.2,20.5-20.4,20.4c-11.3,0-20.4-9.2-20.4-20.5C17.7,9.1,26.9,0,38.1,0
		C49.4,0,58.6,9.2,58.6,20.5z"/>
	<path class="st0" d="M43.4,76.3c-0.4,0-0.6,0-0.8,0c-12,0-24.1,0-36.1,0c-3.2,0-5.7-2.1-6.3-5.1c-0.2-1-0.2-2.1-0.1-3.2
		c0.1-2.1-0.1-4.2,0.4-6.2c0.9-4.1,3.6-7.1,6.9-9.5c4.6-3.4,9.9-5.3,15.4-6.6c6.5-1.5,13-1.9,19.6-1.6c0.4,0,0.7,0.1,1.2,0.1
		c-4.2,4.6-6.4,9.8-6.4,15.9C37.2,66.3,39.3,71.6,43.4,76.3z"/>
	<path class="st0" d="M79.9,60.5c0,10.8-8.7,19.5-19.5,19.5c-10.8,0-19.6-8.8-19.5-19.6c0-10.8,8.8-19.5,19.5-19.5
		C71.2,41,79.9,49.7,79.9,60.5z M58.4,61.6c-1.4-0.9-2.6-1.7-3.8-2.5c-1.4-0.9-3.1-0.6-3.9,0.7c-0.9,1.3-0.5,3,0.9,4
		c1.7,1.2,3.5,2.4,5.3,3.5c1.4,0.9,2.6,0.8,3.8-0.3c3.1-3,6.1-6.1,9.1-9.1c1.2-1.2,1.2-2.9,0-4c-1.1-1.1-2.8-1.1-4,0.1
		c-2.3,2.3-4.6,4.6-6.9,6.9C58.7,61.1,58.6,61.4,58.4,61.6z"/>
</g>
</svg>
